# AST/ASF file generated using VICON BodyLanguage
# -----------------------------------------------
:version 1.10
:name VICON
:units
  mass 1.0
  length 0.45
  angle deg
:documentation
   .ast/.asf automatically generated from VICON data using
   VICON BodyBuilder and BodyLanguage model FoxedUp or BRILLIANT.MOD
:root
   order TX TY TZ RX RY RZ
   axis XYZ
   position 0 0 0  
   orientation 0 0 0 
:bonedata
  begin
     id 1 
     name lhipjoint
     direction 0.671379 -0.66392 0.329334 
     length 2.38647 
     axis 0 0 0  XYZ
  end
  begin
     id 2 
     name lfemur
     direction 0.34202 -0.939693 0  
     length 6.48179  
     axis 0 0 20  XYZ
    dof rx ry rz
    limits (-160.0 20.0)
           (-70.0 70.0)
           (-60.0 70.0)
  end
  begin
     id 3 
     name ltibia
     direction 0.34202 -0.939693 0   
     length 6.86524   
     axis 0 0 20   XYZ
    dof rx
    limits (-10.0 170.0)
  end
  begin
     id 4 
     name lfoot
     direction 0.204886 -0.562919 0.800715   
     length 1.73031   
     axis -90 7.62852e-016 20   XYZ
    dof rx rz
    limits (-45.0 90.0)
           (-70.0 20.0)
  end
  begin
     id 5 
     name ltoes
     direction 1.53548e-011 -4.21841e-011 1   
     length 0.828161   
     axis -90 7.62852e-016 20   XYZ
    dof rx
    limits (-90.0 20.0)
  end
  begin
     id 6 
     name rhipjoint
     direction -0.662732 -0.670855 0.332775   
     length 2.3618  
     axis 0 0 0  XYZ 
  end
  begin
     id 7 
     name rfemur
     direction -0.34202 -0.939693 0   
     length 6.3025   
     axis 0 0 -20   XYZ
    dof rx ry rz
    limits (-160.0 20.0)
           (-70.0 70.0)
           (-70.0 60.0)
  end
  begin
     id 8 
     name rtibia
     direction -0.34202 -0.939693 0   
     length 6.8732   
     axis 0 0 -20   XYZ
    dof rx
    limits (-10.0 170.0)
 end
 begin
     id 9 
     name rfoot
     direction -0.173856 -0.477665 0.861168   
     length 1.54784  
     axis -90 -7.62852e-016 -20   XYZ
    dof rx rz
    limits (-45.0 90.0)
           (-20.0 70.0)
  end
  begin
     id 10 
     name rtoes
     direction -1.53562e-011 -4.21802e-011 1   
     length 0.759618   
     axis -90 -7.62852e-016 -20   XYZ
    dof rx
    limits (-90.0 20.0)
  end
  begin
     id 11 
     name lowerback
     direction -0.0278357 0.999497 -0.0151789   
     length 1.97203   
     axis 0 0 0   XYZ
    dof rx ry rz
    limits (-20.0 45.0)
           (-30.0 30.0)
           (-30.0 30.0)
  end
  begin
     id 12 
     name upperback
     direction -0.00360622 0.997542 0.0699804   
     length 1.94709   
     axis 0 0 0   XYZ
    dof rx ry rz
    limits (-20.0 45.0)
           (-30.0 30.0)
           (-30.0 30.0)
  end
  begin
     id 13 
     name thorax
     direction 0.00907706 0.997048 0.0762461   
     length 1.95722   
     axis 0 0 0   XYZ
    dof rx ry rz
    limits (-20.0 45.0)
           (-30.0 30.0)
           (-30.0 30.0)
  end
  begin
     id 14 
     name lowerneck
     direction -0.0481835 0.99872 -0.0153927   
     length 1.63078   
     axis 0 0 0   XYZ
    dof rx ry rz
    limits (-20.0 45.0)
           (-30.0 30.0)
           (-30.0 30.0)
  end
  begin
     id 15 
     name upperneck
     direction 0.0859716 0.979226 -0.183644   
     length 1.62591   
     axis 0 0 0   XYZ
    dof rx ry rz
    limits (-20.0 45.0)
           (-30.0 30.0)
           (-30.0 30.0)
  end
  begin
     id 16
     name head
     direction 0.0324821 0.997629 -0.0606773  
     length 1.64811  
     axis 0 0 0   XYZ
    dof rx ry rz
    limits (-20.0 45.0)
           (-30.0 30.0)
           (-30.0 30.0)
  end
  begin
     id 17 
     name lclavicle
     direction 0.939609 0.311019 0.142835  
     length 3.70647  
     axis 0 0 0   XYZ
    dof ry rz
    limits (-20.0 10.0)
           (0.0 20.0)
  end
  begin
     id 18 
     name lhumerus
     direction 1 -4.48963e-011 -1.59838e-027   
     length 4.59207   
     axis 180 -30 -90   XYZ
    dof rx ry rz
    limits (-60.0 90.0)
           (-90.0 90.0)
           (-90.0 90.0)
  end
  begin
     id 19
     name lradius
     direction 1 -4.48957e-011 -1.3483e-026   
     length 2.98109   
     axis 180 -30 -90   XYZ
    dof rx
    limits (-10.0 170.0)
  end
  begin
     id 20
     name lwrist
     direction 1 -4.48954e-011 -3.11579e-026   
     length 1.49055   
     axis 2.00652e-014 90 90   XYZ
    dof ry
    limits (-180.0 0.0)
 end
  begin
     id 21 
     name lhand
     direction 1 -4.4911e-011 -6.23158e-026   
     length 0.480203   
     axis 3.97628e-014 90 90   XYZ
    dof rx rz
    limits (-90.0 90.0)
           (-45.0 45.0)
  end
  begin
     id 22 
     name lfingers
     direction 1 -4.48893e-011 -1.24632e-025   
     length 0.387152   
     axis 7.95256e-014 90 90   XYZ
    dof rx
    limits (0.0 90.0)
  end
  begin
     id 23
     name lthumb
     direction 0.707107 -6.35013e-011 0.707107   
     length 0.555875   
     axis -90 45 2.85299e-015   XYZ
    dof rx rz
    limits (-45.0 45.0)
           (-45.0 45.0)
  end
  begin
     id 24 
     name rclavicle
     direction -0.950396 0.30392 0.0661859   
     length 3.70894  
     axis 0 0 0   XYZ 
    dof ry rz
    limits (-10.0 20.0)
           (-20.0 0.0)
  end
  begin
     id 25 
     name rhumerus
     direction -1 -4.48957e-011 -2.96677e-027  
     length 4.76508   
     axis 180 30 90   XYZ
    dof rx ry rz
    limits (-90.0 60.0)
           (-90.0 90.0)
           (-90.0 90.0)
  end
  begin
     id 26 
     name rradius
     direction -1 -4.48974e-011 -1.44501e-026   
     length 2.78902   
     axis 180 30 90   XYZ
    dof rx
    limits (-10.0 170.0)
  end
  begin
     id 27 
     name rwrist
     direction -1 -4.48978e-011 -3.11579e-026   
     length 1.39451   
     axis 2.00652e-014 -90 -90   XYZ
    dof ry
    limits (-180.0 0.0)
  end
  begin
     id 28
     name rhand
     direction -1 -4.48956e-011 -6.23158e-026   
     length 0.721303   
     axis 3.97628e-014 -90 -90   XYZ
    dof rx rz
    limits (-90.0 90.0)
           (-45.0 45.0)
  end
  begin
     id 29
     name rfingers
     direction -1 -4.4899e-011 -1.24632e-025   
     length 0.581533   
     axis 7.95256e-014 -90 -90   XYZ
    dof rx
    limits (0.0 90.0)
  end
  begin
     id 30
     name rthumb
     direction -0.707107 -6.34911e-011 0.707107   
     length 0.834968   
     axis -90 -45 -2.85299e-015   XYZ
    dof rx rz
    limits (-45.0 45.0)
           (-45.0 45.0)
  end
:hierarchy
  begin
    root lhipjoint rhipjoint lowerback
    lhipjoint lfemur
    lfemur ltibia
    ltibia lfoot
    lfoot ltoes
    rhipjoint rfemur
    rfemur rtibia
    rtibia rfoot
    rfoot rtoes
    lowerback upperback
    upperback thorax
    thorax lowerneck lclavicle rclavicle
    lowerneck upperneck
    upperneck head
    lclavicle lhumerus
    lhumerus lradius
    lradius lwrist
    lwrist lhand lthumb
    lhand lfingers
    rclavicle rhumerus
    rhumerus rradius
    rradius rwrist
    rwrist rhand rthumb
    rhand rfingers
  end

#!OML:ASF I:\salsa\salsa 7_09\Patient 1\Session 1\dancerfemale.ASF
:FULLY-SPECIFIED
:DEGREES
197
root 23.6142 15.7469 -0.172399 -158.401 -86.6703 160.145
lowerback -0.126984 -0.0780385 -5.23283
upperback -3.92659 -0.305608 -0.63196
thorax -3.96835 -0.0159565 2.28953
lowerneck -3.54734 -3.47805 -9.26697
upperneck 9.67984 -5.84467 15.2453
head 4.15565 -2.65559 5.97719
rclavicle 9.59136e-015 -6.36111e-015
rhumerus -54.366 -39.7311 -59.0747
rradius 28.9505
rwrist 4.74044
rhand 6.56358 43.0628
rfingers 7.12502
rthumb 31.8602 15.8289
lclavicle 9.59136e-015 -6.36111e-015
lhumerus -40.4775 -7.25979 104.606
lradius 53.7814
lwrist -6.01684
lhand -18.9968 45.8995
lfingers 7.12502
lthumb 7.30821 75.7532
rfemur -27.0937 -1.97436 22.7334
rtibia 27.3741
rfoot -16.208 -10.6074
rtoes -15.9385
lfemur 3.493 0.72474 -28.2372
ltibia 25.1816
lfoot -25.9833 4.95649
ltoes -23.1875
198
root 23.4638 15.7617 -0.204999 -165.052 -86.7824 166.857
lowerback -0.529605 -0.044742 -4.99274
upperback -3.97909 -0.229292 -0.471507
thorax -3.79933 0.0132833 2.3176
lowerneck -3.48002 -3.52279 -9.24716
upperneck 9.73267 -5.9163 15.2078
head 4.16735 -2.69402 5.95866
rclavicle -4.96962e-017 7.15625e-015
rhumerus -54.1744 -39.6524 -59.4301
rradius 29.0608
rwrist 4.53689
rhand 6.68875 42.8239
rfingers 7.12502
rthumb 31.9794 15.6138
lclavicle -4.96962e-017 7.15625e-015
lhumerus -40.7342 -7.87087 105.135
lradius 53.4549
lwrist -6.38941
lhand -18.5119 47.7952
lfingers 7.12502
lthumb 7.77632 77.6322
rfemur -26.5515 -2.58133 23.3889
rtibia 27.3903
rfoot -16.4987 -9.79801
rtoes -15.7754
lfemur 3.69714 0.251796 -27.8316
ltibia 25.824
lfoot -25.5245 5.69251
ltoes -23.9093
199
root 23.3138 15.7763 -0.239138 -170.102 -86.8856 171.946
lowerback -0.91604 -0.00332629 -4.84891
upperback -4.0156 -0.148383 -0.357393
thorax -3.62397 0.0467291 2.35216
lowerneck -3.32767 -3.57546 -9.16656
upperneck 9.74806 -5.99946 15.1274
head 4.15171 -2.74209 5.91607
rclavicle 8.05078e-015 -2.22639e-014
rhumerus -53.8687 -39.4182 -60.1103
rradius 29.363
rwrist 4.08795
rhand 6.75621 42.7231
rfingers 7.12502
rthumb 32.0436 15.5259
lclavicle 8.05078e-015 -2.22639e-014
lhumerus -40.9494 -8.26575 105.455
lradius 52.9537
lwrist -6.99384
lhand -18.2316 47.2164
lfingers 7.12502
lthumb 8.04683 77.0432
rfemur -25.952 -3.2198 23.9241
rtibia 27.3765
rfoot -16.9738 -9.15574
rtoes -16.3862
lfemur 3.90418 -0.199861 -27.5015
ltibia 26.4978
lfoot -24.8966 6.2385
ltoes -24.1831
200
root 23.1638 15.7917 -0.274958 -174.461 -86.9652 176.374
lowerback -1.21581 -0.0261098 -4.63485
upperback -4.05533 -0.161478 -0.311226
thorax -3.49363 0.0308435 2.27973
lowerneck -3.4897 -3.59241 -9.17505
upperneck 9.97256 -6.04382 15.1409
head 4.25282 -2.75354 5.91831
rclavicle -3.08116e-015 1.98785e-015
rhumerus -53.1858 -38.9326 -61.4121
rradius 29.7918
rwrist 3.46195
rhand 6.69598 42.5964
rfingers 7.12502
rthumb 31.9863 15.3877
lclavicle -3.08116e-015 1.98785e-015
lhumerus -41.0865 -8.41404 105.485
lradius 52.3911
lwrist -7.33193
lhand -18.0161 46.2718
lfingers 7.12502
lthumb 8.2548 76.0905
rfemur -25.3787 -3.55407 24.342
rtibia 27.396
rfoot -17.5818 -8.84062
rtoes -17.2762
lfemur 4.00237 -0.844452 -27.281
ltibia 27.3116
lfoot -24.3633 6.76697
ltoes -24.6117
201
root 23.0105 15.8064 -0.313251 -177.727 -86.9404 179.776
lowerback -1.61881 -0.00926308 -4.47633
upperback -4.15226 -0.123952 -0.305272
thorax -3.36898 0.0410777 2.19591
lowerneck -3.61025 -3.60294 -9.19165
upperneck 10.2341 -6.08873 15.1636
head 4.35842 -2.76673 5.92605
rclavicle -3.32964e-015 7.55382e-015
rhumerus -52.5045 -38.3178 -62.8459
rradius 30.2859
rwrist 2.70319
rhand 6.64225 42.4171
rfingers 7.12502
rthumb 31.9351 15.1981
lclavicle -3.32964e-015 7.55382e-015
lhumerus -41.2848 -8.43429 105.425
lradius 51.7544
lwrist -7.57595
lhand -17.6071 45.9306
lfingers 7.12502
lthumb 8.64953 75.7335
rfemur -24.8434 -3.55394 24.6625
rtibia 27.3584
rfoot -18.1468 -8.77711
rtoes -17.3937
lfemur 3.96169 -1.64684 -27.2062
ltibia 28.2434
lfoot -23.8532 7.4847
ltoes -25.579
202
root 22.8612 15.8061 -0.351771 -179.291 -86.9392 181.459
lowerback -1.98494 0.00518539 -4.33951
upperback -4.25454 -0.094888 -0.345816
thorax -3.27031 0.0473689 2.07676
lowerneck -3.63538 -3.59564 -9.23269
upperneck 10.4354 -6.10522 15.1846
head 4.42653 -2.77197 5.94038
rclavicle -2.6339e-015 6.36111e-015
rhumerus -51.8226 -37.6009 -64.3939
rradius 30.8542
rwrist 1.93612
rhand 6.57463 42.3361
rfingers 7.12502
rthumb 31.8707 15.1043
lclavicle -2.6339e-015 6.36111e-015
lhumerus -41.4481 -8.16669 105.154
lradius 51.0043
lwrist -8.05542
lhand -17.098 45.2251
lfingers 7.12502
lthumb 9.14075 75.007
rfemur -24.3458 -3.67708 24.8995
rtibia 27.3097
rfoot -18.6224 -8.58654
rtoes -17.2274
lfemur 3.77427 -2.13844 -27.1343
ltibia 29.3996
lfoot -23.2721 7.95202
ltoes -26.8444
203
root 22.717 15.8151 -0.388304 -182.342 -86.9983 184.632
lowerback -2.35614 0.0543303 -4.15201
upperback -4.32304 -0.0168222 -0.3451
thorax -3.13648 0.0768159 1.97187
lowerneck -3.49264 -3.61681 -9.31205
upperneck 10.4513 -6.15035 15.2488
head 4.41628 -2.80108 5.9746
rclavicle 5.86415e-015 -1.39149e-014
rhumerus -51.0627 -36.8244 -66.0108
rradius 31.5728
rwrist 1.02105
rhand 6.48901 42.2145
rfingers 7.12502
rthumb 31.7892 14.9665
lclavicle 5.86415e-015 -1.39149e-014
lhumerus -41.5002 -7.8145 104.837
lradius 50.1088
lwrist -8.5953
lhand -16.7783 44.5577
lfingers 7.12502
lthumb 9.44925 74.3259
rfemur -23.8701 -4.07875 25.2252
rtibia 27.2512
rfoot -18.9629 -8.19234
rtoes -17.1761
lfemur 3.40292 -2.31743 -26.8427
ltibia 30.7849
lfoot -22.6691 7.98731
ltoes -28.4428
